<svg width="91" height="158" viewBox="0 0 91 158" fill="none" xmlns="http://www.w3.org/2000/svg">
<path opacity="0.2" d="M178.147 -56.5574C161.451 -54.9987 143.318 -54.7542 127.05 -51.109C111.13 -47.5421 94.3657 -41.0712 80.3596 -34.2368C54.549 -21.6423 41.3297 -4.01075 29.3367 17.0245C9.5446 51.7387 2.37897 87.7435 2.06965 125.464C1.86488 150.435 2.82483 175.152 5.43134 200.042C6.22713 207.641 5.82939 216.328 11.4077 222.89" stroke="#A596FF" stroke-width="3.16355" stroke-linecap="round"/>
<path opacity="0.2" d="M211.889 -38.6317C194.693 -37.0259 176.017 -36.7741 159.261 -33.0189C142.865 -29.3443 125.599 -22.678 111.173 -15.6373C84.5898 -2.66259 70.9747 15.5012 58.6226 37.1715C38.2379 72.9337 30.8578 110.025 30.5392 148.885C30.3283 174.61 31.317 200.073 34.0015 225.714C34.8212 233.542 34.4115 242.491 40.1568 249.251" stroke="#A596FF" stroke-width="3.16355" stroke-linecap="round"/>
</svg>
