<svg width="305" height="158" viewBox="0 0 305 158" fill="none" xmlns="http://www.w3.org/2000/svg">
<path opacity="0.2" d="M262.882 411.866C266.701 389.49 272.272 368.444 270.845 344.318C269.826 327.087 265.558 310.128 257.353 293.946C242.056 263.775 222.058 235.014 198.285 212.096C173.992 188.678 150.144 163.197 122.712 145.214C97.2073 128.494 70.0046 114.681 45.1388 96.5106C3.47572 66.0663 -26.0123 17.4849 -51.0408 -29.1415C-64.2819 -53.8087 -77.4144 -78.6439 -90.091 -103.604C-98.046 -119.267 -104.729 -136.063 -114.51 -150.618" stroke="#A596FF" stroke-width="2.8563" stroke-linecap="round"/>
<path opacity="0.2" d="M293.93 403.849C298.051 379.676 304.063 356.939 302.517 330.873C301.412 312.256 296.799 293.933 287.934 276.448C271.404 243.849 249.799 212.77 224.116 188.005C197.872 162.7 172.108 135.165 142.474 115.731C114.923 97.6611 85.5377 82.731 58.6759 63.0949C13.6686 30.1943 -18.1922 -22.299 -45.2356 -72.6793C-59.5427 -99.3323 -73.7326 -126.167 -87.4301 -153.136C-96.0256 -170.06 -103.247 -188.208 -113.815 -203.936" stroke="#A596FF" stroke-width="2.8563" stroke-linecap="round"/>
</svg>
