<svg width="535" height="467" viewBox="0 0 535 467" fill="none" xmlns="http://www.w3.org/2000/svg">
<rect x="1.49428" y="0.785294" width="532.429" height="464.894" rx="24.3441" fill="white" stroke="#EDF2F7" stroke-width="1.57059"/>
<rect x="321.109" y="37.6943" width="175.906" height="53.4" rx="12.5647" fill="#FAFAFA"/>
<path d="M344.933 71.3945V59.6811H340.419V57.8246H351.416V59.6811H346.903V71.3945H344.933ZM360.696 71.3945V66.3906C360.696 65.9948 360.661 65.5896 360.592 65.175C360.529 64.7541 360.404 64.3646 360.215 64.0065C360.033 63.6484 359.772 63.3594 359.433 63.1395C359.1 62.9196 358.663 62.8097 358.123 62.8097C357.771 62.8097 357.438 62.8694 357.124 62.9887C356.81 63.1018 356.534 63.2872 356.295 63.5447C356.063 63.8023 355.877 64.1416 355.739 64.5625C355.607 64.9834 355.541 65.4954 355.541 66.0985L354.316 65.6368C354.316 64.7132 354.489 63.8997 354.834 63.1961C355.18 62.4862 355.676 61.9333 356.323 61.5375C356.97 61.1417 357.752 60.9438 358.67 60.9438C359.373 60.9438 359.964 61.0569 360.441 61.2831C360.919 61.5092 361.305 61.8077 361.6 62.1783C361.902 62.5427 362.131 62.9416 362.288 63.3751C362.445 63.8086 362.552 64.2326 362.609 64.6473C362.665 65.0619 362.694 65.4263 362.694 65.7404V71.3945H360.696ZM353.543 71.3945V57.8246H355.305V65.1467H355.541V71.3945H353.543ZM365.965 59.5492V57.6362H367.934V59.5492H365.965ZM365.965 71.3945V61.2171H367.934V71.3945H365.965ZM375.284 71.6678C374.047 71.6678 373.038 71.3945 372.259 70.848C371.48 70.3014 371.003 69.5318 370.827 68.5392L372.844 68.2282C372.969 68.7559 373.258 69.1737 373.711 69.4816C374.169 69.7831 374.738 69.9339 375.416 69.9339C376.032 69.9339 376.512 69.8082 376.858 69.5569C377.21 69.3056 377.386 68.9601 377.386 68.5204C377.386 68.2628 377.323 68.0555 377.197 67.8984C377.078 67.7351 376.823 67.5811 376.434 67.4366C376.044 67.2922 375.451 67.1131 374.653 66.8995C373.78 66.6733 373.085 66.4315 372.57 66.1739C372.061 65.91 371.697 65.6053 371.477 65.2598C371.264 64.908 371.157 64.4839 371.157 63.9876C371.157 63.372 371.32 62.8348 371.647 62.3762C371.973 61.9176 372.432 61.5626 373.023 61.3114C373.619 61.0601 374.317 60.9344 375.115 60.9344C375.894 60.9344 376.588 61.0569 377.197 61.3019C377.807 61.5469 378.3 61.8956 378.677 62.3479C379.054 62.794 379.28 63.3186 379.355 63.9217L377.339 64.2892C377.27 63.7992 377.04 63.4128 376.651 63.1301C376.261 62.8474 375.755 62.6935 375.134 62.6683C374.537 62.6432 374.053 62.7437 373.682 62.9699C373.312 63.1898 373.126 63.4945 373.126 63.884C373.126 64.1101 373.195 64.3018 373.334 64.4588C373.478 64.6159 373.755 64.7666 374.163 64.9111C374.571 65.0556 375.174 65.2284 375.972 65.4294C376.827 65.6493 377.505 65.8943 378.008 66.1645C378.51 66.4283 378.868 66.7456 379.082 67.1162C379.302 67.4806 379.412 67.9235 379.412 68.445C379.412 69.4501 379.044 70.2386 378.309 70.8103C377.58 71.382 376.572 71.6678 375.284 71.6678ZM398.721 71.3945L398.73 65.0525C398.73 64.3175 398.541 63.7458 398.165 63.3374C397.788 62.9228 397.291 62.7155 396.676 62.7155C396.299 62.7155 395.953 62.8034 395.639 62.9793C395.331 63.1489 395.08 63.4065 394.885 63.752C394.697 64.0913 394.602 64.5185 394.602 65.0336L393.651 64.553C393.638 63.8369 393.789 63.2086 394.103 62.6683C394.423 62.1281 394.857 61.7103 395.403 61.415C395.95 61.1135 396.563 60.9627 397.241 60.9627C398.34 60.9627 399.192 61.2925 399.795 61.9522C400.398 62.6118 400.699 63.4882 400.699 64.5813L400.69 71.3945H398.721ZM386.517 71.3945V61.2171H388.27V64.1573H388.496V71.3945H386.517ZM392.623 71.3945L392.633 65.0902C392.633 64.3489 392.444 63.7678 392.068 63.3468C391.697 62.9259 391.197 62.7155 390.569 62.7155C389.947 62.7155 389.445 62.9291 389.061 63.3563C388.684 63.7835 388.496 64.3426 388.496 65.0336L387.554 64.4305C387.554 63.7646 387.714 63.1709 388.034 62.6495C388.355 62.1281 388.788 61.7166 389.335 61.415C389.881 61.1135 390.5 60.9627 391.191 60.9627C391.914 60.9627 392.529 61.1166 393.038 61.4244C393.547 61.726 393.933 62.15 394.197 62.6966C394.467 63.2432 394.602 63.8777 394.602 64.6002L394.593 71.3945H392.623ZM408.066 71.6772C407.048 71.6772 406.165 71.4479 405.418 70.9893C404.67 70.5307 404.092 69.8993 403.684 69.0952C403.282 68.2848 403.08 67.3518 403.08 66.2964C403.08 65.2347 403.288 64.3018 403.702 63.4976C404.117 62.6872 404.698 62.059 405.446 61.6129C406.193 61.1606 407.067 60.9344 408.066 60.9344C409.083 60.9344 409.966 61.1637 410.714 61.6223C411.461 62.0809 412.039 62.7123 412.447 63.5165C412.856 64.3206 413.06 65.2472 413.06 66.2964C413.06 67.3581 412.853 68.2942 412.438 69.1046C412.03 69.9088 411.452 70.5401 410.704 70.9987C409.957 71.4511 409.077 71.6772 408.066 71.6772ZM408.066 69.8208C409.039 69.8208 409.765 69.4941 410.242 68.8408C410.726 68.1811 410.968 67.333 410.968 66.2964C410.968 65.2347 410.723 64.3866 410.233 63.752C409.749 63.1112 409.027 62.7908 408.066 62.7908C407.406 62.7908 406.862 62.9416 406.435 63.2432C406.008 63.5384 405.691 63.9499 405.483 64.4777C405.276 64.9991 405.172 65.6053 405.172 66.2964C405.172 67.3644 405.418 68.2188 405.908 68.8596C406.398 69.5004 407.117 69.8208 408.066 69.8208ZM422.902 71.3945V66.3906C422.902 65.9948 422.868 65.5896 422.798 65.175C422.736 64.7541 422.61 64.3646 422.421 64.0065C422.239 63.6484 421.979 63.3594 421.639 63.1395C421.306 62.9196 420.87 62.8097 420.329 62.8097C419.978 62.8097 419.645 62.8694 419.331 62.9887C419.016 63.1018 418.74 63.2872 418.501 63.5447C418.269 63.8023 418.084 64.1416 417.945 64.5625C417.813 64.9834 417.747 65.4954 417.747 66.0985L416.522 65.6368C416.522 64.7132 416.695 63.8997 417.041 63.1961C417.386 62.4862 417.882 61.9333 418.53 61.5375C419.177 61.1417 419.959 60.9438 420.876 60.9438C421.58 60.9438 422.17 61.0569 422.648 61.2831C423.125 61.5092 423.511 61.8077 423.807 62.1783C424.108 62.5427 424.338 62.9416 424.495 63.3751C424.652 63.8086 424.759 64.2326 424.815 64.6473C424.872 65.0619 424.9 65.4263 424.9 65.7404V71.3945H422.902ZM415.75 71.3945V61.2171H417.512V64.1573H417.747V71.3945H415.75ZM433.806 71.3945C433.166 71.5202 432.537 71.5736 431.922 71.5547C431.306 71.5359 430.756 71.4165 430.273 71.1966C429.789 70.9768 429.424 70.6312 429.179 70.16C428.96 69.7391 428.84 69.3119 428.821 68.8784C428.809 68.4387 428.802 67.9424 428.802 67.3895V58.3901H430.781V67.2953C430.781 67.7036 430.785 68.0586 430.791 68.3602C430.803 68.6617 430.869 68.9161 430.989 69.1235C431.215 69.513 431.573 69.736 432.063 69.7925C432.559 69.8428 433.14 69.8208 433.806 69.7266V71.3945ZM426.852 62.8003V61.2171H433.806V62.8003H426.852ZM443.723 71.3945V66.3906C443.723 65.9948 443.689 65.5896 443.62 65.175C443.557 64.7541 443.431 64.3646 443.243 64.0065C443.061 63.6484 442.8 63.3594 442.461 63.1395C442.128 62.9196 441.691 62.8097 441.151 62.8097C440.799 62.8097 440.466 62.8694 440.152 62.9887C439.838 63.1018 439.561 63.2872 439.323 63.5447C439.09 63.8023 438.905 64.1416 438.767 64.5625C438.635 64.9834 438.569 65.4954 438.569 66.0985L437.344 65.6368C437.344 64.7132 437.516 63.8997 437.862 63.1961C438.208 62.4862 438.704 61.9333 439.351 61.5375C439.998 61.1417 440.78 60.9438 441.697 60.9438C442.401 60.9438 442.992 61.0569 443.469 61.2831C443.946 61.5092 444.333 61.8077 444.628 62.1783C444.93 62.5427 445.159 62.9416 445.316 63.3751C445.473 63.8086 445.58 64.2326 445.636 64.6473C445.693 65.0619 445.721 65.4263 445.721 65.7404V71.3945H443.723ZM436.571 71.3945V57.8246H438.333V65.1467H438.569V71.3945H436.571Z" fill="#1A202C"/>
<path d="M459.421 61.2529L465.703 67.5353L471.986 61.2529" stroke="#1A202C" stroke-width="2.35588" stroke-linecap="round" stroke-linejoin="round"/>
<path d="M43.5239 75.5474V55.1925H52.1181C52.316 55.1925 52.5799 55.202 52.9097 55.2208C53.2489 55.2302 53.5505 55.2585 53.8144 55.3056C55.03 55.4941 56.0242 55.8946 56.7969 56.5071C57.5791 57.1197 58.1539 57.8924 58.5214 58.8253C58.8889 59.7488 59.0727 60.7807 59.0727 61.9209C59.0727 63.0612 58.8842 64.0978 58.5073 65.0307C58.1398 65.9542 57.5649 66.7222 56.7828 67.3348C56.01 67.9473 55.0206 68.3478 53.8144 68.5363C53.5505 68.574 53.2489 68.6022 52.9097 68.6211C52.5705 68.6399 52.3066 68.6493 52.1181 68.6493H47.3687V75.5474H43.5239ZM47.3687 65.059H51.9485C52.1464 65.059 52.3631 65.0496 52.5987 65.0307C52.8343 65.0119 53.0511 64.9742 53.2489 64.9176C53.7672 64.7763 54.1677 64.5407 54.4504 64.2109C54.7332 63.8716 54.9263 63.4994 55.03 63.0942C55.1431 62.6795 55.1996 62.2885 55.1996 61.9209C55.1996 61.5534 55.1431 61.1671 55.03 60.7618C54.9263 60.3472 54.7332 59.975 54.4504 59.6452C54.1677 59.3059 53.7672 59.0656 53.2489 58.9243C53.0511 58.8677 52.8343 58.83 52.5987 58.8112C52.3631 58.7923 52.1464 58.7829 51.9485 58.7829H47.3687V65.059ZM67.9073 75.9997C66.7105 75.9997 65.7352 75.7971 64.9813 75.3919C64.2274 74.9867 63.6384 74.4731 63.2144 73.8511C62.7997 73.2292 62.5029 72.5837 62.3239 71.9146C62.1448 71.2361 62.0364 70.6189 61.9987 70.0629C61.961 69.5069 61.9422 69.1017 61.9422 68.8472V60.2812H65.8435V67.4902C65.8435 67.8389 65.8624 68.2865 65.9001 68.8331C65.9378 69.3702 66.0556 69.9121 66.2535 70.4587C66.4514 71.0052 66.7718 71.4623 67.2147 71.8298C67.667 72.1973 68.3031 72.3811 69.1229 72.3811C69.4528 72.3811 69.8061 72.3292 70.1831 72.2256C70.56 72.1219 70.9134 71.924 71.2432 71.6319C71.573 71.3303 71.8416 70.8921 72.0489 70.3173C72.2657 69.733 72.374 68.9697 72.374 68.0274L74.5792 69.0734C74.5792 70.2796 74.3341 71.4104 73.8441 72.4659C73.3541 73.5213 72.6143 74.3741 71.6249 75.0244C70.6448 75.6746 69.4056 75.9997 67.9073 75.9997ZM72.8546 75.5474V70.4869H72.374V60.2812H76.2471V75.5474H72.8546ZM80.5118 75.5474V60.2812H83.9043V64.013L83.5368 63.5324C83.7347 63.0046 83.9985 62.524 84.3284 62.0906C84.6582 61.6571 85.0634 61.299 85.544 61.0163C85.9115 60.7901 86.312 60.6158 86.7455 60.4933C87.179 60.3613 87.6266 60.2812 88.0883 60.253C88.5501 60.2153 89.0119 60.2247 89.4736 60.2812V63.8716C89.0495 63.7397 88.5548 63.6973 87.9894 63.7444C87.4334 63.7821 86.9293 63.9093 86.4769 64.126C86.0246 64.3334 85.6429 64.6114 85.332 64.96C85.021 65.2993 84.7854 65.7045 84.6252 66.1757C84.465 66.6374 84.3849 67.1604 84.3849 67.7447V75.5474H80.5118ZM98.9288 75.9714C97.3457 75.9714 95.9887 75.618 94.8579 74.9113C93.7271 74.2045 92.8601 73.2433 92.257 72.0277C91.6539 70.812 91.3523 69.4409 91.3523 67.9143C91.3523 66.3688 91.6633 64.9883 92.2853 63.7727C92.9166 62.557 93.8024 61.6005 94.9427 60.9032C96.0829 60.2059 97.4305 59.8572 98.9854 59.8572C100.785 59.8572 102.293 60.3142 103.509 61.2283C104.734 62.133 105.516 63.3722 105.855 64.9459L102.01 65.9636C101.784 65.1721 101.388 64.5548 100.823 64.1119C100.267 63.669 99.6356 63.4476 98.9288 63.4476C98.1184 63.4476 97.4541 63.6454 96.9358 64.0412C96.4175 64.4276 96.0358 64.96 95.7908 65.6385C95.5458 66.3076 95.4233 67.0662 95.4233 67.9143C95.4233 69.243 95.7154 70.322 96.2997 71.1513C96.8934 71.9711 97.7697 72.3811 98.9288 72.3811C99.7958 72.3811 100.455 72.1832 100.908 71.7874C101.36 71.3916 101.699 70.8262 101.926 70.0911L105.855 70.911C105.422 72.5318 104.602 73.7805 103.396 74.6568C102.189 75.5332 100.7 75.9714 98.9288 75.9714ZM119.4 75.5474V68.3384C119.4 67.9897 119.381 67.5468 119.344 67.0096C119.306 66.4631 119.188 65.9165 118.99 65.37C118.792 64.8234 118.467 64.3663 118.015 63.9988C117.572 63.6313 116.941 63.4476 116.121 63.4476C115.791 63.4476 115.438 63.4994 115.061 63.603C114.684 63.7067 114.33 63.9093 114 64.2109C113.671 64.503 113.397 64.9365 113.181 65.5113C112.973 66.0861 112.87 66.8494 112.87 67.8012L110.664 66.7552C110.664 65.549 110.91 64.4182 111.4 63.3627C111.89 62.3073 112.625 61.4545 113.605 60.8043C114.594 60.154 115.838 59.8289 117.336 59.8289C118.533 59.8289 119.508 60.0315 120.262 60.4367C121.016 60.8419 121.601 61.3555 122.015 61.9775C122.439 62.5994 122.741 63.2497 122.92 63.9282C123.099 64.5972 123.207 65.2098 123.245 65.7657C123.283 66.3217 123.301 66.7269 123.301 66.9814V75.5474H119.4ZM108.968 75.5474V55.1925H112.389V65.6527H112.87V75.5474H108.968ZM131.524 75.9714C130.431 75.9714 129.503 75.7641 128.739 75.3495C127.986 74.9254 127.411 74.3647 127.015 73.6674C126.629 72.9606 126.435 72.1832 126.435 71.335C126.435 70.6283 126.544 69.9828 126.76 69.3985C126.977 68.8143 127.326 68.3007 127.806 67.8578C128.296 67.4054 128.951 67.0285 129.771 66.7269C130.337 66.5196 131.01 66.3359 131.793 66.1757C132.575 66.0155 133.461 65.8647 134.45 65.7233C135.44 65.5726 136.528 65.4076 137.715 65.2286L136.33 65.9919C136.33 65.0872 136.113 64.4229 135.68 63.9988C135.246 63.5748 134.521 63.3627 133.503 63.3627C132.938 63.3627 132.349 63.4994 131.736 63.7727C131.124 64.0459 130.695 64.5313 130.45 65.2286L126.972 64.126C127.359 62.8633 128.084 61.8361 129.149 61.0446C130.214 60.253 131.665 59.8572 133.503 59.8572C134.851 59.8572 136.047 60.0645 137.093 60.4791C138.139 60.8938 138.931 61.61 139.468 62.6277C139.77 63.1931 139.949 63.7585 140.005 64.3239C140.062 64.8894 140.09 65.5207 140.09 66.2181V75.5474H136.726V72.4093L137.206 73.0596C136.462 74.0867 135.656 74.8312 134.789 75.2929C133.932 75.7453 132.843 75.9714 131.524 75.9714ZM132.344 72.9465C133.051 72.9465 133.644 72.824 134.125 72.579C134.615 72.3245 135.001 72.0371 135.284 71.7167C135.576 71.3963 135.774 71.1277 135.878 70.911C136.076 70.4964 136.189 70.0158 136.217 69.4692C136.255 68.9132 136.274 68.4514 136.274 68.0839L137.404 68.3666C136.264 68.5551 135.341 68.7153 134.634 68.8472C133.927 68.9697 133.357 69.0828 132.923 69.1865C132.49 69.2901 132.108 69.4032 131.778 69.5257C131.402 69.6765 131.095 69.8414 130.86 70.0205C130.634 70.1901 130.464 70.3786 130.351 70.5859C130.247 70.7932 130.195 71.0241 130.195 71.2785C130.195 71.6272 130.28 71.9287 130.45 72.1832C130.629 72.4282 130.879 72.6166 131.199 72.7486C131.519 72.8805 131.901 72.9465 132.344 72.9465ZM150.045 75.9714C148.122 75.9714 146.567 75.5379 145.38 74.671C144.202 73.7946 143.486 72.5601 143.231 70.9675L147.161 70.3738C147.321 71.09 147.675 71.6507 148.221 72.0559C148.777 72.4612 149.479 72.6638 150.327 72.6638C151.025 72.6638 151.562 72.5318 151.939 72.268C152.316 71.9947 152.504 71.6178 152.504 71.1372C152.504 70.8356 152.429 70.5953 152.278 70.4163C152.127 70.2278 151.788 70.044 151.26 69.865C150.742 69.6859 149.932 69.4503 148.829 69.1582C147.585 68.8378 146.591 68.4797 145.846 68.0839C145.102 67.6881 144.565 67.217 144.235 66.6704C143.905 66.1144 143.74 65.4453 143.74 64.6632C143.74 63.6831 143.99 62.835 144.489 62.1188C144.989 61.3932 145.691 60.8372 146.596 60.4509C147.51 60.0551 148.584 59.8572 149.818 59.8572C151.015 59.8572 152.075 60.0409 152.999 60.4085C153.922 60.776 154.667 61.299 155.232 61.9775C155.807 62.656 156.161 63.457 156.292 64.3805L152.363 65.0872C152.297 64.5218 152.052 64.0742 151.628 63.7444C151.204 63.4146 150.629 63.2214 149.903 63.1648C149.197 63.1177 148.626 63.212 148.193 63.4476C147.769 63.6831 147.557 64.0224 147.557 64.4653C147.557 64.7292 147.646 64.9506 147.825 65.1297C148.014 65.3087 148.396 65.4925 148.97 65.6809C149.555 65.8694 150.44 66.1144 151.628 66.416C152.787 66.7175 153.715 67.0709 154.412 67.4761C155.119 67.8719 155.633 68.3525 155.953 68.9179C156.274 69.4739 156.434 70.1477 156.434 70.9393C156.434 72.5036 155.868 73.7333 154.738 74.6286C153.607 75.5238 152.042 75.9714 150.045 75.9714ZM166.95 75.9714C165.386 75.9714 164.005 75.6369 162.808 74.9678C161.621 74.2893 160.688 73.3611 160.01 72.1832C159.341 70.9958 159.006 69.6388 159.006 68.1122C159.006 66.4442 159.336 64.993 159.995 63.7585C160.655 62.524 161.565 61.5676 162.724 60.8891C163.883 60.2011 165.216 59.8572 166.724 59.8572C168.326 59.8572 169.688 60.2341 170.809 60.988C171.93 61.7419 172.76 62.802 173.297 64.1685C173.834 65.5349 174.022 67.1416 173.862 68.9886H170.06V67.5751C170.06 66.0202 169.81 64.9035 169.311 64.225C168.821 63.5371 168.015 63.1931 166.894 63.1931C165.584 63.1931 164.618 63.5936 163.996 64.3946C163.383 65.1862 163.077 66.3594 163.077 67.9143C163.077 69.3373 163.383 70.4398 163.996 71.222C164.618 71.9947 165.527 72.3811 166.724 72.3811C167.478 72.3811 168.123 72.2161 168.66 71.8863C169.198 71.5565 169.607 71.0806 169.89 70.4587L173.735 71.5612C173.16 72.9559 172.251 74.0396 171.007 74.8123C169.772 75.5851 168.42 75.9714 166.95 75.9714ZM161.89 68.9886V66.1333H172.01V68.9886H161.89ZM183.333 75.9714C181.411 75.9714 179.856 75.5379 178.668 74.671C177.491 73.7946 176.774 72.5601 176.52 70.9675L180.45 70.3738C180.61 71.09 180.963 71.6507 181.51 72.0559C182.066 72.4612 182.768 72.6638 183.616 72.6638C184.313 72.6638 184.85 72.5318 185.227 72.268C185.604 71.9947 185.793 71.6178 185.793 71.1372C185.793 70.8356 185.717 70.5953 185.567 70.4163C185.416 70.2278 185.076 70.044 184.549 69.865C184.03 69.6859 183.22 69.4503 182.117 69.1582C180.874 68.8378 179.879 68.4797 179.135 68.0839C178.39 67.6881 177.853 67.217 177.524 66.6704C177.194 66.1144 177.029 65.4453 177.029 64.6632C177.029 63.6831 177.279 62.835 177.778 62.1188C178.277 61.3932 178.979 60.8372 179.884 60.4509C180.798 60.0551 181.872 59.8572 183.107 59.8572C184.304 59.8572 185.364 60.0409 186.287 60.4085C187.211 60.776 187.955 61.299 188.521 61.9775C189.096 62.656 189.449 63.457 189.581 64.3805L185.651 65.0872C185.585 64.5218 185.34 64.0742 184.916 63.7444C184.492 63.4146 183.917 63.2214 183.192 63.1648C182.485 63.1177 181.915 63.212 181.481 63.4476C181.057 63.6831 180.845 64.0224 180.845 64.4653C180.845 64.7292 180.935 64.9506 181.114 65.1297C181.302 65.3087 181.684 65.4925 182.259 65.6809C182.843 65.8694 183.729 66.1144 184.916 66.416C186.075 66.7175 187.004 67.0709 187.701 67.4761C188.408 67.8719 188.921 68.3525 189.242 68.9179C189.562 69.4739 189.722 70.1477 189.722 70.9393C189.722 72.5036 189.157 73.7333 188.026 74.6286C186.895 75.5238 185.331 75.9714 183.333 75.9714Z" fill="#1A202C"/>
<rect x="39.1876" y="129.573" width="457.041" height="133.5" rx="18.0618" stroke="#EDF2F7" stroke-width="1.57059"/>
<rect x="63.5322" y="156.359" width="50.2588" height="50.2588" rx="25.1294" fill="#F4F0FF"/>
<path d="M89.3524 170.775L89.321 170.848L86.2845 177.895H83.3004C82.5884 177.895 81.9078 178.042 81.29 178.303L83.1224 173.927L83.1643 173.822L83.2376 173.654C83.2585 173.592 83.2795 173.529 83.3109 173.476C84.6825 170.304 86.2322 169.581 89.3524 170.775Z" stroke="#936DFF" stroke-width="1.57059" stroke-linecap="round" stroke-linejoin="round"/>
<path d="M94.9957 178.104C94.5245 177.958 94.0219 177.895 93.5194 177.895H86.2842L89.3206 170.848L89.3521 170.775C89.5091 170.827 89.6557 170.901 89.8128 170.963L92.1268 171.937C93.4147 172.471 94.3151 173.026 94.8596 173.696C94.9643 173.822 95.0481 173.937 95.1214 174.073C95.2156 174.22 95.2889 174.366 95.3308 174.523C95.3727 174.618 95.4041 174.712 95.425 174.796C95.7077 175.675 95.5402 176.754 94.9957 178.104Z" stroke="#936DFF" stroke-width="1.57059" stroke-linecap="round" stroke-linejoin="round"/>
<path d="M98.6303 183.005V185.047C98.6303 185.256 98.6198 185.466 98.6093 185.675C98.4104 189.329 96.3686 191.172 92.4945 191.172H84.3274C84.0761 191.172 83.8249 191.151 83.584 191.12C80.2544 190.9 78.4744 189.12 78.2545 185.79C78.2231 185.55 78.2021 185.298 78.2021 185.047V183.005C78.2021 180.901 79.4796 179.089 81.3014 178.304C81.9297 178.042 82.5998 177.896 83.3118 177.896H93.5311C94.0441 177.896 94.5467 177.969 95.0074 178.105C97.0911 178.744 98.6303 180.691 98.6303 183.005Z" stroke="#936DFF" stroke-width="1.57059" stroke-linecap="round" stroke-linejoin="round"/>
<path d="M83.1221 173.927L81.2897 178.303C79.4678 179.089 78.1904 180.9 78.1904 183.005V179.937C78.1904 176.963 80.3055 174.482 83.1221 173.927Z" stroke="#936DFF" stroke-width="1.57059" stroke-linecap="round" stroke-linejoin="round"/>
<path d="M98.6277 179.936V183.004C98.6277 180.7 97.099 178.742 95.0049 178.114C95.5494 176.753 95.7064 175.685 95.4446 174.795C95.4237 174.7 95.3923 174.606 95.3504 174.522C97.2979 175.528 98.6277 177.59 98.6277 179.936Z" stroke="#936DFF" stroke-width="1.57059" stroke-linecap="round" stroke-linejoin="round"/>
<path d="M133.957 174.917V161.348H142.815V163.741H136.52V166.644H141.684V169.037H136.52V172.524H142.815V174.917H133.957ZM144.571 174.917L148.209 169.772L144.647 164.74H147.662L149.698 167.756L151.695 164.74H154.711L151.149 169.772L154.805 174.917H151.79L149.698 171.789L147.587 174.917H144.571ZM161.945 175.2C160.933 175.2 160.088 174.965 159.41 174.493C158.731 174.022 158.219 173.381 157.874 172.571C157.534 171.761 157.365 170.847 157.365 169.829C157.365 168.811 157.534 167.897 157.874 167.087C158.213 166.276 158.712 165.635 159.372 165.164C160.032 164.693 160.845 164.457 161.813 164.457C162.786 164.457 163.635 164.69 164.357 165.155C165.08 165.62 165.639 166.257 166.034 167.068C166.437 167.872 166.638 168.792 166.638 169.829C166.638 170.847 166.44 171.761 166.044 172.571C165.654 173.381 165.108 174.022 164.404 174.493C163.701 174.965 162.881 175.2 161.945 175.2ZM156.931 179.441V164.74H159.193V171.713H159.513V179.441H156.931ZM161.53 172.92C162.083 172.92 162.535 172.781 162.887 172.505C163.239 172.229 163.5 171.858 163.669 171.393C163.839 170.922 163.924 170.4 163.924 169.829C163.924 169.263 163.836 168.748 163.66 168.283C163.484 167.812 163.211 167.438 162.84 167.162C162.475 166.879 162.007 166.738 161.436 166.738C160.902 166.738 160.468 166.867 160.135 167.124C159.809 167.382 159.57 167.743 159.419 168.208C159.268 168.673 159.193 169.213 159.193 169.829C159.193 170.444 159.268 170.985 159.419 171.45C159.57 171.915 159.815 172.276 160.154 172.533C160.5 172.791 160.958 172.92 161.53 172.92ZM174.07 175.2C173.027 175.2 172.107 174.977 171.309 174.531C170.517 174.079 169.895 173.46 169.443 172.675C168.997 171.883 168.774 170.978 168.774 169.961C168.774 168.849 168.994 167.881 169.434 167.058C169.873 166.235 170.48 165.598 171.252 165.145C172.025 164.687 172.914 164.457 173.919 164.457C174.987 164.457 175.895 164.709 176.643 165.211C177.39 165.714 177.943 166.421 178.301 167.332C178.659 168.242 178.785 169.314 178.678 170.545H176.143V169.603C176.143 168.566 175.977 167.822 175.644 167.369C175.317 166.911 174.78 166.681 174.032 166.681C173.159 166.681 172.515 166.948 172.1 167.482C171.692 168.01 171.488 168.792 171.488 169.829C171.488 170.777 171.692 171.512 172.1 172.034C172.515 172.549 173.121 172.807 173.919 172.807C174.422 172.807 174.852 172.697 175.21 172.477C175.568 172.257 175.842 171.94 176.03 171.525L178.593 172.26C178.21 173.19 177.604 173.912 176.775 174.427C175.952 174.943 175.05 175.2 174.07 175.2ZM170.696 170.545V168.641H177.444V170.545H170.696ZM188.094 174.917V170.111C188.094 169.879 188.081 169.584 188.056 169.226C188.031 168.861 187.952 168.497 187.821 168.133C187.689 167.768 187.472 167.463 187.17 167.218C186.875 166.973 186.454 166.851 185.908 166.851C185.688 166.851 185.452 166.885 185.201 166.955C184.949 167.024 184.714 167.159 184.494 167.36C184.274 167.555 184.092 167.844 183.947 168.227C183.809 168.61 183.74 169.119 183.74 169.753L182.27 169.056C182.27 168.252 182.433 167.498 182.76 166.794C183.087 166.091 183.577 165.522 184.23 165.089C184.89 164.655 185.719 164.439 186.718 164.439C187.516 164.439 188.166 164.574 188.669 164.844C189.171 165.114 189.561 165.456 189.837 165.871C190.12 166.286 190.321 166.719 190.44 167.171C190.56 167.617 190.632 168.026 190.657 168.396C190.682 168.767 190.695 169.037 190.695 169.207V174.917H188.094ZM181.139 174.917V164.74H183.42V168.114H183.74V174.917H181.139ZM197.745 175.2C196.463 175.2 195.427 174.911 194.635 174.333C193.85 173.749 193.372 172.926 193.203 171.864L195.823 171.468C195.929 171.946 196.165 172.32 196.529 172.59C196.9 172.86 197.368 172.995 197.933 172.995C198.398 172.995 198.756 172.907 199.008 172.731C199.259 172.549 199.385 172.298 199.385 171.977C199.385 171.776 199.334 171.616 199.234 171.497C199.133 171.371 198.907 171.249 198.555 171.129C198.21 171.01 197.67 170.853 196.934 170.658C196.105 170.444 195.442 170.206 194.946 169.942C194.45 169.678 194.092 169.364 193.872 169C193.652 168.629 193.542 168.183 193.542 167.661C193.542 167.008 193.708 166.443 194.041 165.965C194.374 165.481 194.842 165.111 195.446 164.853C196.055 164.589 196.771 164.457 197.594 164.457C198.392 164.457 199.099 164.58 199.714 164.825C200.33 165.07 200.826 165.419 201.203 165.871C201.587 166.323 201.822 166.857 201.91 167.473L199.29 167.944C199.246 167.567 199.083 167.269 198.8 167.049C198.518 166.829 198.134 166.7 197.651 166.662C197.179 166.631 196.799 166.694 196.51 166.851C196.228 167.008 196.086 167.234 196.086 167.529C196.086 167.705 196.146 167.853 196.265 167.972C196.391 168.092 196.645 168.214 197.029 168.34C197.418 168.466 198.009 168.629 198.8 168.83C199.573 169.031 200.192 169.267 200.657 169.537C201.128 169.801 201.47 170.121 201.684 170.498C201.898 170.869 202.004 171.318 202.004 171.845C202.004 172.888 201.627 173.708 200.874 174.305C200.12 174.902 199.077 175.2 197.745 175.2ZM209.434 175.2C208.391 175.2 207.471 174.977 206.673 174.531C205.881 174.079 205.259 173.46 204.807 172.675C204.361 171.883 204.138 170.978 204.138 169.961C204.138 168.849 204.358 167.881 204.798 167.058C205.237 166.235 205.844 165.598 206.616 165.145C207.389 164.687 208.278 164.457 209.283 164.457C210.351 164.457 211.259 164.709 212.007 165.211C212.754 165.714 213.307 166.421 213.665 167.332C214.023 168.242 214.149 169.314 214.042 170.545H211.507V169.603C211.507 168.566 211.341 167.822 211.008 167.369C210.681 166.911 210.144 166.681 209.396 166.681C208.523 166.681 207.879 166.948 207.464 167.482C207.056 168.01 206.852 168.792 206.852 169.829C206.852 170.777 207.056 171.512 207.464 172.034C207.879 172.549 208.485 172.807 209.283 172.807C209.786 172.807 210.216 172.697 210.574 172.477C210.932 172.257 211.206 171.94 211.394 171.525L213.957 172.26C213.574 173.19 212.968 173.912 212.139 174.427C211.316 174.943 210.414 175.2 209.434 175.2ZM206.06 170.545V168.641H212.808V170.545H206.06Z" fill="#1A202C"/>
<path d="M133.894 203.059V191.75H135.292V203.059H133.894ZM144.315 203.059V198.81C144.315 198.407 144.279 198.02 144.205 197.648C144.137 197.276 144.014 196.944 143.836 196.651C143.664 196.352 143.428 196.117 143.13 195.944C142.836 195.771 142.465 195.685 142.014 195.685C141.664 195.685 141.344 195.745 141.056 195.865C140.774 195.98 140.53 196.158 140.326 196.399C140.122 196.64 139.962 196.944 139.847 197.31C139.737 197.671 139.682 198.098 139.682 198.59L138.763 198.308C138.763 197.486 138.91 196.781 139.203 196.195C139.502 195.604 139.918 195.151 140.452 194.837C140.991 194.517 141.624 194.358 142.352 194.358C142.902 194.358 143.37 194.444 143.758 194.617C144.145 194.789 144.467 195.02 144.724 195.308C144.98 195.59 145.182 195.91 145.328 196.266C145.475 196.617 145.577 196.975 145.635 197.342C145.698 197.703 145.729 198.046 145.729 198.37V203.059H144.315ZM138.269 203.059V194.577H139.525V196.847H139.682V203.059H138.269ZM151.895 203.294C151.037 203.294 150.306 203.103 149.704 202.721C149.107 202.334 148.652 201.802 148.338 201.127C148.024 200.451 147.861 199.682 147.851 198.818C147.861 197.933 148.026 197.156 148.346 196.486C148.67 195.81 149.134 195.284 149.736 194.907C150.338 194.53 151.063 194.342 151.911 194.342C152.806 194.342 153.576 194.562 154.22 195.001C154.869 195.441 155.303 196.043 155.523 196.808L154.141 197.224C153.963 196.732 153.673 196.35 153.269 196.077C152.872 195.805 152.413 195.669 151.895 195.669C151.314 195.669 150.835 195.805 150.458 196.077C150.081 196.344 149.801 196.716 149.618 197.192C149.435 197.664 149.34 198.205 149.335 198.818C149.346 199.76 149.563 200.522 149.987 201.103C150.416 201.679 151.052 201.967 151.895 201.967C152.45 201.967 152.911 201.841 153.277 201.59C153.644 201.334 153.921 200.964 154.11 200.483L155.523 200.852C155.23 201.642 154.772 202.247 154.149 202.666C153.526 203.085 152.775 203.294 151.895 203.294ZM157.754 203.059V194.577H159.003V196.627L158.799 196.36C158.898 196.098 159.026 195.857 159.183 195.638C159.346 195.418 159.526 195.237 159.725 195.096C159.945 194.918 160.194 194.782 160.471 194.687C160.749 194.593 161.032 194.538 161.319 194.522C161.607 194.502 161.877 194.52 162.128 194.577V195.889C161.835 195.81 161.513 195.789 161.162 195.826C160.812 195.863 160.487 195.991 160.189 196.211C159.916 196.405 159.704 196.64 159.553 196.918C159.406 197.195 159.304 197.496 159.246 197.821C159.189 198.14 159.16 198.467 159.16 198.802V203.059H157.754ZM167.763 203.294C166.931 203.294 166.203 203.111 165.58 202.744C164.962 202.373 164.481 201.857 164.135 201.197C163.79 200.533 163.617 199.758 163.617 198.873C163.617 197.946 163.787 197.145 164.127 196.47C164.468 195.789 164.941 195.266 165.549 194.899C166.161 194.528 166.879 194.342 167.7 194.342C168.554 194.342 169.279 194.538 169.876 194.931C170.478 195.323 170.928 195.884 171.226 196.611C171.53 197.339 171.661 198.205 171.619 199.211H170.206V198.708C170.19 197.666 169.978 196.889 169.569 196.376C169.161 195.857 168.554 195.598 167.748 195.598C166.884 195.598 166.227 195.876 165.776 196.431C165.326 196.986 165.101 197.781 165.101 198.818C165.101 199.818 165.326 200.593 165.776 201.142C166.227 201.692 166.868 201.967 167.7 201.967C168.261 201.967 168.748 201.839 169.161 201.582C169.575 201.326 169.899 200.957 170.135 200.475L171.478 200.938C171.148 201.687 170.651 202.268 169.986 202.682C169.326 203.09 168.585 203.294 167.763 203.294ZM164.63 199.211V198.088H170.897V199.211H164.63ZM176.253 203.294C175.62 203.294 175.088 203.179 174.659 202.949C174.235 202.713 173.913 202.404 173.693 202.022C173.478 201.64 173.371 201.221 173.371 200.766C173.371 200.321 173.455 199.936 173.622 199.611C173.795 199.281 174.036 199.009 174.345 198.794C174.654 198.575 175.023 198.402 175.452 198.276C175.855 198.166 176.306 198.072 176.803 197.993C177.305 197.91 177.813 197.834 178.326 197.766C178.839 197.698 179.318 197.632 179.763 197.569L179.261 197.86C179.277 197.106 179.125 196.549 178.805 196.187C178.491 195.826 177.947 195.645 177.172 195.645C176.659 195.645 176.209 195.763 175.821 195.999C175.439 196.229 175.169 196.606 175.012 197.13L173.685 196.729C173.889 195.986 174.285 195.402 174.871 194.978C175.457 194.554 176.23 194.342 177.188 194.342C177.957 194.342 178.617 194.481 179.167 194.758C179.722 195.03 180.119 195.444 180.36 195.999C180.481 196.261 180.557 196.546 180.588 196.855C180.619 197.158 180.635 197.478 180.635 197.813V203.059H179.394V201.025L179.685 201.213C179.366 201.899 178.918 202.417 178.342 202.768C177.771 203.119 177.075 203.294 176.253 203.294ZM176.465 202.124C176.968 202.124 177.402 202.035 177.769 201.857C178.141 201.674 178.439 201.436 178.664 201.142C178.889 200.844 179.036 200.519 179.104 200.169C179.182 199.907 179.224 199.616 179.229 199.297C179.24 198.972 179.245 198.724 179.245 198.551L179.732 198.763C179.277 198.826 178.829 198.886 178.389 198.944C177.949 199.001 177.533 199.064 177.141 199.132C176.748 199.195 176.395 199.271 176.08 199.36C175.85 199.433 175.633 199.527 175.429 199.643C175.23 199.758 175.067 199.907 174.942 200.09C174.821 200.268 174.761 200.491 174.761 200.758C174.761 200.988 174.819 201.208 174.934 201.417C175.054 201.627 175.238 201.797 175.484 201.928C175.735 202.059 176.062 202.124 176.465 202.124ZM186.509 203.286C185.499 203.286 184.669 203.066 184.02 202.627C183.376 202.182 182.981 201.561 182.834 200.766L184.263 200.538C184.378 200.999 184.643 201.365 185.056 201.637C185.47 201.904 185.983 202.038 186.596 202.038C187.177 202.038 187.632 201.917 187.962 201.676C188.292 201.436 188.457 201.108 188.457 200.695C188.457 200.454 188.402 200.26 188.292 200.114C188.182 199.962 187.954 199.821 187.609 199.69C187.268 199.559 186.753 199.402 186.062 199.219C185.313 199.02 184.724 198.813 184.295 198.598C183.865 198.383 183.559 198.135 183.376 197.852C183.193 197.569 183.101 197.226 183.101 196.823C183.101 196.326 183.237 195.891 183.509 195.52C183.782 195.143 184.161 194.852 184.648 194.648C185.14 194.444 185.711 194.342 186.36 194.342C187.004 194.342 187.58 194.444 188.088 194.648C188.595 194.852 189.004 195.143 189.313 195.52C189.627 195.891 189.813 196.326 189.87 196.823L188.441 197.083C188.373 196.627 188.153 196.268 187.781 196.007C187.415 195.745 186.941 195.606 186.36 195.59C185.81 195.57 185.363 195.666 185.017 195.881C184.677 196.096 184.507 196.386 184.507 196.753C184.507 196.957 184.569 197.132 184.695 197.279C184.826 197.425 185.064 197.564 185.41 197.695C185.76 197.826 186.268 197.975 186.933 198.143C187.682 198.331 188.271 198.538 188.7 198.763C189.135 198.983 189.444 199.245 189.627 199.548C189.81 199.847 189.902 200.216 189.902 200.656C189.902 201.472 189.601 202.116 188.999 202.587C188.396 203.053 187.567 203.286 186.509 203.286ZM195.937 203.294C195.105 203.294 194.377 203.111 193.754 202.744C193.136 202.373 192.654 201.857 192.309 201.197C191.963 200.533 191.791 199.758 191.791 198.873C191.791 197.946 191.961 197.145 192.301 196.47C192.641 195.789 193.115 195.266 193.722 194.899C194.335 194.528 195.052 194.342 195.874 194.342C196.727 194.342 197.453 194.538 198.049 194.931C198.651 195.323 199.102 195.884 199.4 196.611C199.704 197.339 199.835 198.205 199.793 199.211H198.379V198.708C198.364 197.666 198.151 196.889 197.743 196.376C197.335 195.857 196.727 195.598 195.921 195.598C195.057 195.598 194.4 195.876 193.95 196.431C193.5 196.986 193.275 197.781 193.275 198.818C193.275 199.818 193.5 200.593 193.95 201.142C194.4 201.692 195.042 201.967 195.874 201.967C196.434 201.967 196.921 201.839 197.335 201.582C197.748 201.326 198.073 200.957 198.309 200.475L199.651 200.938C199.322 201.687 198.824 202.268 198.159 202.682C197.5 203.09 196.759 203.294 195.937 203.294ZM192.804 199.211V198.088H199.07V199.211H192.804ZM205.499 203.294C204.708 203.294 204.031 203.098 203.465 202.705C202.9 202.307 202.463 201.771 202.154 201.095C201.85 200.42 201.698 199.658 201.698 198.81C201.698 197.962 201.85 197.2 202.154 196.525C202.463 195.85 202.9 195.318 203.465 194.931C204.031 194.538 204.706 194.342 205.491 194.342C206.292 194.342 206.965 194.536 207.509 194.923C208.054 195.31 208.465 195.842 208.742 196.517C209.025 197.192 209.166 197.957 209.166 198.81C209.166 199.653 209.025 200.415 208.742 201.095C208.465 201.771 208.054 202.307 207.509 202.705C206.965 203.098 206.295 203.294 205.499 203.294ZM205.672 202.014C206.242 202.014 206.711 201.878 207.077 201.606C207.444 201.328 207.714 200.949 207.886 200.467C208.064 199.98 208.153 199.428 208.153 198.81C208.153 198.182 208.064 197.63 207.886 197.153C207.714 196.672 207.447 196.297 207.085 196.03C206.724 195.758 206.266 195.622 205.711 195.622C205.135 195.622 204.659 195.763 204.282 196.046C203.91 196.329 203.633 196.711 203.449 197.192C203.271 197.674 203.182 198.213 203.182 198.81C203.182 199.412 203.274 199.957 203.457 200.444C203.64 200.925 203.915 201.307 204.282 201.59C204.654 201.873 205.117 202.014 205.672 202.014ZM208.153 203.059V196.816H207.996V191.75H209.402V203.059H208.153ZM216.003 203.059V191.75H220.408C221.084 191.75 221.66 191.889 222.136 192.167C222.618 192.444 222.984 192.811 223.235 193.266C223.492 193.716 223.62 194.203 223.62 194.727C223.62 195.339 223.463 195.876 223.149 196.336C222.835 196.797 222.411 197.114 221.877 197.287L221.861 196.902C222.589 197.096 223.154 197.452 223.557 197.97C223.96 198.488 224.162 199.106 224.162 199.823C224.162 200.483 224.026 201.053 223.754 201.535C223.487 202.017 223.099 202.391 222.591 202.658C222.089 202.925 221.492 203.059 220.801 203.059H216.003ZM217.416 201.724H220.534C220.953 201.724 221.327 201.648 221.657 201.496C221.987 201.339 222.246 201.119 222.434 200.836C222.628 200.554 222.725 200.213 222.725 199.815C222.725 199.433 222.639 199.09 222.466 198.787C222.298 198.483 222.06 198.242 221.751 198.064C221.448 197.881 221.094 197.789 220.691 197.789H217.416V201.724ZM217.416 196.47H220.393C220.728 196.47 221.029 196.399 221.296 196.258C221.568 196.111 221.783 195.907 221.94 195.645C222.102 195.384 222.183 195.077 222.183 194.727C222.183 194.24 222.018 193.842 221.688 193.533C221.359 193.224 220.927 193.07 220.393 193.07H217.416V196.47ZM227.533 206.828L229.174 202.368L229.198 203.687L225.491 194.577H226.96L229.865 201.904H229.363L232.088 194.577H233.509L228.892 206.828H227.533ZM241.178 203.059V193.297L239.05 194.585V193.023L241.178 191.75H242.599V203.059H241.178ZM250.032 203.294C249.299 203.294 248.645 203.129 248.069 202.799C247.498 202.464 247.046 202.012 246.711 201.441C246.381 200.865 246.216 200.211 246.216 199.478V195.331C246.216 194.598 246.381 193.944 246.711 193.368C247.046 192.792 247.498 192.339 248.069 192.01C248.645 191.68 249.299 191.515 250.032 191.515C250.765 191.515 251.42 191.68 251.996 192.01C252.571 192.339 253.024 192.792 253.354 193.368C253.684 193.944 253.849 194.598 253.849 195.331V199.478C253.849 200.211 253.684 200.865 253.354 201.441C253.024 202.012 252.571 202.464 251.996 202.799C251.42 203.129 250.765 203.294 250.032 203.294ZM250.032 201.951C250.477 201.951 250.88 201.844 251.242 201.629C251.603 201.415 251.891 201.127 252.105 200.766C252.32 200.399 252.427 199.996 252.427 199.556V195.245C252.427 194.8 252.32 194.397 252.105 194.036C251.891 193.674 251.603 193.386 251.242 193.172C250.88 192.957 250.477 192.85 250.032 192.85C249.593 192.85 249.189 192.957 248.823 193.172C248.462 193.386 248.174 193.674 247.959 194.036C247.744 194.397 247.637 194.8 247.637 195.245V199.556C247.637 199.996 247.744 200.399 247.959 200.766C248.174 201.127 248.462 201.415 248.823 201.629C249.189 201.844 249.593 201.951 250.032 201.951ZM257.932 203.059L256.99 202.116L267.371 191.75L268.314 192.693L257.932 203.059ZM265.958 203.294C265.439 203.294 264.966 203.169 264.536 202.917C264.112 202.661 263.772 202.32 263.515 201.896C263.259 201.467 263.131 200.991 263.131 200.467C263.131 199.954 263.262 199.483 263.523 199.054C263.785 198.624 264.131 198.281 264.56 198.025C264.989 197.768 265.455 197.64 265.958 197.64C266.476 197.64 266.95 197.768 267.379 198.025C267.808 198.276 268.149 198.616 268.4 199.046C268.656 199.47 268.785 199.944 268.785 200.467C268.785 200.991 268.656 201.467 268.4 201.896C268.149 202.32 267.808 202.661 267.379 202.917C266.95 203.169 266.476 203.294 265.958 203.294ZM265.958 202.061C266.246 202.061 266.51 201.988 266.751 201.841C266.997 201.695 267.191 201.501 267.332 201.26C267.479 201.019 267.552 200.755 267.552 200.467C267.552 200.179 267.479 199.915 267.332 199.674C267.191 199.428 266.997 199.234 266.751 199.093C266.51 198.946 266.246 198.873 265.958 198.873C265.67 198.873 265.405 198.946 265.165 199.093C264.924 199.234 264.73 199.428 264.583 199.674C264.437 199.915 264.364 200.179 264.364 200.467C264.364 200.755 264.437 201.019 264.583 201.26C264.73 201.501 264.924 201.695 265.165 201.841C265.405 201.988 265.67 202.061 265.958 202.061ZM259.346 197.169C258.827 197.169 258.353 197.043 257.924 196.792C257.495 196.535 257.152 196.195 256.895 195.771C256.644 195.342 256.518 194.865 256.518 194.342C256.518 193.829 256.649 193.358 256.911 192.928C257.173 192.499 257.518 192.156 257.948 191.9C258.377 191.643 258.843 191.515 259.346 191.515C259.864 191.515 260.335 191.643 260.759 191.9C261.188 192.151 261.531 192.491 261.788 192.92C262.044 193.345 262.173 193.818 262.173 194.342C262.173 194.865 262.044 195.342 261.788 195.771C261.531 196.195 261.188 196.535 260.759 196.792C260.335 197.043 259.864 197.169 259.346 197.169ZM259.346 195.936C259.633 195.936 259.898 195.863 260.139 195.716C260.385 195.57 260.578 195.376 260.72 195.135C260.866 194.894 260.94 194.63 260.94 194.342C260.94 194.054 260.866 193.79 260.72 193.549C260.578 193.303 260.385 193.109 260.139 192.968C259.898 192.821 259.633 192.748 259.346 192.748C259.058 192.748 258.793 192.821 258.552 192.968C258.312 193.109 258.118 193.303 257.971 193.549C257.825 193.79 257.751 194.054 257.751 194.342C257.751 194.63 257.825 194.894 257.971 195.135C258.118 195.376 258.312 195.57 258.552 195.716C258.793 195.863 259.058 195.936 259.346 195.936Z" fill="#A0AEC0"/>
<path d="M382.889 192.187V189.549H385.879V192.187H382.889ZM382.889 174.619V171.98H385.879V174.619H382.889ZM384.406 190.318C383.27 190.318 382.255 190.109 381.36 189.691C380.466 189.266 379.737 188.669 379.173 187.899C378.608 187.122 378.249 186.206 378.095 185.151L381.064 184.689C381.262 185.554 381.676 186.243 382.306 186.756C382.944 187.269 383.702 187.526 384.582 187.526C385.41 187.526 386.095 187.331 386.638 186.943C387.187 186.554 387.462 186.074 387.462 185.503C387.462 185.114 387.341 184.795 387.099 184.546C386.865 184.29 386.495 184.081 385.989 183.92L382.075 182.71C379.818 182.014 378.689 180.636 378.689 178.576C378.689 177.609 378.916 176.77 379.371 176.059C379.832 175.348 380.481 174.802 381.317 174.421C382.159 174.032 383.153 173.842 384.296 173.849C385.344 173.864 386.275 174.054 387.088 174.421C387.902 174.78 388.58 175.304 389.122 175.993C389.672 176.674 390.072 177.506 390.321 178.488L387.242 179.038C387.14 178.569 386.949 178.159 386.671 177.807C386.392 177.448 386.044 177.169 385.626 176.971C385.216 176.766 384.758 176.656 384.252 176.641C383.768 176.627 383.328 176.696 382.933 176.85C382.544 177.004 382.233 177.22 381.998 177.499C381.771 177.77 381.657 178.078 381.657 178.422C381.657 178.804 381.819 179.133 382.141 179.412C382.464 179.683 382.977 179.918 383.68 180.116L386.473 180.907C387.873 181.31 388.88 181.856 389.496 182.545C390.119 183.234 390.431 184.147 390.431 185.283C390.431 186.28 390.178 187.155 389.672 187.91C389.166 188.665 388.459 189.255 387.55 189.68C386.649 190.106 385.601 190.318 384.406 190.318ZM399.598 189.988V187.526H392.715V184.733L397.707 174.157H401.137L396.146 184.733H399.598V180.775H402.632V184.733H404.039V187.526H402.632V189.988H399.598ZM412.868 190.318C411.695 190.318 410.669 190.073 409.79 189.581C408.91 189.09 408.225 188.405 407.734 187.526C407.243 186.646 406.997 185.62 406.997 184.447V179.698C406.997 178.525 407.243 177.499 407.734 176.619C408.225 175.74 408.91 175.055 409.79 174.564C410.669 174.072 411.695 173.827 412.868 173.827C414.041 173.827 415.067 174.072 415.946 174.564C416.826 175.055 417.511 175.74 418.002 176.619C418.493 177.499 418.739 178.525 418.739 179.698V184.447C418.739 185.62 418.493 186.646 418.002 187.526C417.511 188.405 416.826 189.09 415.946 189.581C415.067 190.073 414.041 190.318 412.868 190.318ZM412.868 187.482C413.396 187.482 413.872 187.357 414.297 187.108C414.722 186.859 415.06 186.521 415.309 186.096C415.558 185.671 415.683 185.195 415.683 184.667V179.456C415.683 178.928 415.558 178.452 415.309 178.027C415.06 177.602 414.722 177.264 414.297 177.015C413.872 176.766 413.396 176.641 412.868 176.641C412.34 176.641 411.864 176.766 411.439 177.015C411.014 177.264 410.677 177.602 410.427 178.027C410.178 178.452 410.054 178.928 410.054 179.456V184.667C410.054 185.195 410.178 185.671 410.427 186.096C410.677 186.521 411.014 186.859 411.439 187.108C411.864 187.357 412.34 187.482 412.868 187.482ZM427.207 173.849C428.255 173.849 429.193 174.094 430.021 174.586C430.857 175.077 431.517 175.762 432 176.641C432.484 177.514 432.726 178.525 432.726 179.676V184.271C432.726 185.517 432.484 186.595 432 187.504C431.517 188.405 430.835 189.101 429.955 189.592C429.076 190.076 428.043 190.318 426.855 190.318C426.086 190.318 425.353 190.204 424.656 189.977C423.967 189.743 423.33 189.358 422.743 188.823L424.876 186.69C425.14 186.954 425.444 187.159 425.789 187.306C426.141 187.452 426.496 187.526 426.855 187.526C427.427 187.526 427.922 187.394 428.339 187.13C428.764 186.859 429.091 186.51 429.318 186.085C429.552 185.653 429.67 185.195 429.67 184.711V182.358L430.175 182.908C429.728 183.37 429.204 183.725 428.603 183.974C428.002 184.216 427.383 184.337 426.745 184.337C425.748 184.337 424.869 184.114 424.107 183.667C423.352 183.22 422.758 182.608 422.326 181.831C421.9 181.054 421.688 180.167 421.688 179.17C421.688 178.173 421.941 177.275 422.446 176.477C422.952 175.67 423.623 175.033 424.458 174.564C425.294 174.087 426.21 173.849 427.207 173.849ZM427.207 176.707C426.753 176.707 426.335 176.817 425.954 177.037C425.58 177.257 425.279 177.554 425.052 177.928C424.832 178.302 424.722 178.716 424.722 179.17C424.722 179.624 424.832 180.042 425.052 180.423C425.272 180.797 425.569 181.098 425.943 181.325C426.316 181.545 426.731 181.655 427.185 181.655C427.639 181.655 428.054 181.545 428.427 181.325C428.808 181.098 429.109 180.797 429.329 180.423C429.556 180.042 429.67 179.624 429.67 179.17C429.67 178.73 429.56 178.324 429.34 177.95C429.12 177.576 428.823 177.275 428.449 177.048C428.075 176.821 427.661 176.707 427.207 176.707ZM436.604 189.988V186.998H439.594V189.988H436.604ZM449.348 190.318C448.175 190.318 447.149 190.073 446.27 189.581C445.39 189.09 444.705 188.405 444.214 187.526C443.723 186.646 443.477 185.62 443.477 184.447V179.698C443.477 178.525 443.723 177.499 444.214 176.619C444.705 175.74 445.39 175.055 446.27 174.564C447.149 174.072 448.175 173.827 449.348 173.827C450.521 173.827 451.547 174.072 452.426 174.564C453.306 175.055 453.991 175.74 454.482 176.619C454.973 177.499 455.219 178.525 455.219 179.698V184.447C455.219 185.62 454.973 186.646 454.482 187.526C453.991 188.405 453.306 189.09 452.426 189.581C451.547 190.073 450.521 190.318 449.348 190.318ZM449.348 187.482C449.876 187.482 450.352 187.357 450.777 187.108C451.202 186.859 451.54 186.521 451.789 186.096C452.038 185.671 452.163 185.195 452.163 184.667V179.456C452.163 178.928 452.038 178.452 451.789 178.027C451.54 177.602 451.202 177.264 450.777 177.015C450.352 176.766 449.876 176.641 449.348 176.641C448.82 176.641 448.344 176.766 447.919 177.015C447.494 177.264 447.157 177.602 446.907 178.027C446.658 178.452 446.534 178.928 446.534 179.456V184.667C446.534 185.195 446.658 185.671 446.907 186.096C447.157 186.521 447.494 186.859 447.919 187.108C448.344 187.357 448.82 187.482 449.348 187.482ZM464.479 190.318C463.306 190.318 462.28 190.073 461.4 189.581C460.521 189.09 459.835 188.405 459.344 187.526C458.853 186.646 458.608 185.62 458.608 184.447V179.698C458.608 178.525 458.853 177.499 459.344 176.619C459.835 175.74 460.521 175.055 461.4 174.564C462.28 174.072 463.306 173.827 464.479 173.827C465.651 173.827 466.677 174.072 467.557 174.564C468.436 175.055 469.122 175.74 469.613 176.619C470.104 177.499 470.349 178.525 470.349 179.698V184.447C470.349 185.62 470.104 186.646 469.613 187.526C469.122 188.405 468.436 189.09 467.557 189.581C466.677 190.073 465.651 190.318 464.479 190.318ZM464.479 187.482C465.006 187.482 465.483 187.357 465.908 187.108C466.333 186.859 466.67 186.521 466.919 186.096C467.168 185.671 467.293 185.195 467.293 184.667V179.456C467.293 178.928 467.168 178.452 466.919 178.027C466.67 177.602 466.333 177.264 465.908 177.015C465.483 176.766 465.006 176.641 464.479 176.641C463.951 176.641 463.474 176.766 463.049 177.015C462.624 177.264 462.287 177.602 462.038 178.027C461.789 178.452 461.664 178.928 461.664 179.456V184.667C461.664 185.195 461.789 185.671 462.038 186.096C462.287 186.521 462.624 186.859 463.049 187.108C463.474 187.357 463.951 187.482 464.479 187.482Z" fill="#1A202C"/>
<rect opacity="0.2" x="63.5322" y="229.477" width="408.353" height="9.42353" rx="4.71176" fill="#6C5FBC"/>
<rect x="63.5322" y="229.477" width="296.841" height="9.42353" rx="4.71176" fill="#6C5FBC"/>
<rect x="39.1876" y="286.632" width="457.041" height="133.5" rx="18.0618" stroke="#EDF2F7" stroke-width="1.57059"/>
<rect x="63.5322" y="313.417" width="50.2588" height="50.2588" rx="25.1294" fill="#F2FDF6"/>
<path d="M93.8963 348.233H83.4257C80.2845 348.233 78.1904 346.663 78.1904 342.998V335.668C78.1904 332.004 80.2845 330.433 83.4257 330.433H93.8963C97.0375 330.433 99.1316 332.004 99.1316 335.668V342.998C99.1316 346.663 97.0375 348.233 93.8963 348.233Z" stroke="#22C55E" stroke-width="1.57059" stroke-miterlimit="10" stroke-linecap="round" stroke-linejoin="round"/>
<path d="M88.6617 342.474C90.3965 342.474 91.8029 341.067 91.8029 339.333C91.8029 337.598 90.3965 336.191 88.6617 336.191C86.9269 336.191 85.5205 337.598 85.5205 339.333C85.5205 341.067 86.9269 342.474 88.6617 342.474Z" stroke="#22C55E" stroke-width="1.57059" stroke-miterlimit="10" stroke-linecap="round" stroke-linejoin="round"/>
<path d="M81.8564 336.715V341.951" stroke="#22C55E" stroke-width="1.57059" stroke-miterlimit="10" stroke-linecap="round" stroke-linejoin="round"/>
<path d="M95.4668 336.715V341.951" stroke="#22C55E" stroke-width="1.57059" stroke-miterlimit="10" stroke-linecap="round" stroke-linejoin="round"/>
<path d="M136.878 331.976L132.732 318.406H135.371L138.763 329.564L142.212 318.406H144.851L140.704 331.976H136.878ZM150.356 332.259C149.331 332.259 148.433 332.029 147.66 331.571C146.888 331.112 146.285 330.481 145.851 329.677C145.424 328.866 145.21 327.937 145.21 326.887C145.21 325.826 145.43 324.893 145.87 324.089C146.31 323.278 146.916 322.647 147.689 322.194C148.461 321.742 149.35 321.516 150.356 321.516C151.38 321.516 152.278 321.745 153.051 322.204C153.83 322.662 154.436 323.297 154.869 324.107C155.303 324.912 155.52 325.838 155.52 326.887C155.52 327.943 155.3 328.876 154.86 329.686C154.426 330.49 153.82 331.122 153.041 331.58C152.268 332.033 151.373 332.259 150.356 332.259ZM150.356 329.865C151.178 329.865 151.791 329.589 152.193 329.036C152.601 328.477 152.806 327.761 152.806 326.887C152.806 325.983 152.598 325.26 152.184 324.72C151.775 324.18 151.166 323.91 150.356 323.91C149.796 323.91 149.338 324.035 148.98 324.286C148.622 324.538 148.355 324.886 148.179 325.332C148.009 325.779 147.924 326.297 147.924 326.887C147.924 327.798 148.128 328.524 148.537 329.064C148.951 329.598 149.558 329.865 150.356 329.865ZM162.706 332.259C161.65 332.259 160.746 332.023 159.992 331.552C159.238 331.081 158.66 330.44 158.258 329.63C157.856 328.819 157.655 327.905 157.655 326.887C157.655 325.857 157.862 324.937 158.277 324.126C158.698 323.316 159.288 322.678 160.048 322.213C160.808 321.748 161.707 321.516 162.743 321.516C163.943 321.516 164.949 321.821 165.759 322.43C166.576 323.033 167.097 323.859 167.323 324.908L164.76 325.587C164.609 325.059 164.345 324.648 163.968 324.352C163.598 324.057 163.177 323.91 162.706 323.91C162.165 323.91 161.723 324.041 161.377 324.305C161.031 324.563 160.777 324.918 160.614 325.37C160.45 325.816 160.369 326.322 160.369 326.887C160.369 327.773 160.563 328.493 160.953 329.045C161.349 329.592 161.933 329.865 162.706 329.865C163.284 329.865 163.723 329.733 164.025 329.469C164.327 329.206 164.553 328.829 164.704 328.339L167.323 328.885C167.034 329.966 166.488 330.798 165.684 331.382C164.879 331.967 163.887 332.259 162.706 332.259ZM176.772 331.976V327.17C176.772 326.938 176.759 326.642 176.734 326.284C176.709 325.92 176.631 325.556 176.499 325.191C176.367 324.827 176.15 324.522 175.849 324.277C175.553 324.032 175.132 323.91 174.586 323.91C174.366 323.91 174.13 323.944 173.879 324.013C173.628 324.082 173.392 324.217 173.172 324.418C172.952 324.613 172.77 324.902 172.626 325.285C172.487 325.669 172.418 326.177 172.418 326.812L170.948 326.115C170.948 325.31 171.112 324.557 171.438 323.853C171.765 323.149 172.255 322.581 172.908 322.147C173.568 321.714 174.397 321.497 175.396 321.497C176.194 321.497 176.844 321.632 177.347 321.902C177.849 322.172 178.239 322.515 178.515 322.929C178.798 323.344 178.999 323.778 179.119 324.23C179.238 324.676 179.31 325.084 179.335 325.455C179.36 325.826 179.373 326.096 179.373 326.265V331.976H176.772ZM169.817 331.976V318.406H172.098V325.38H172.418V331.976H169.817ZM187.177 332.259C186.134 332.259 185.214 332.036 184.416 331.59C183.624 331.137 183.002 330.519 182.55 329.733C182.104 328.942 181.881 328.037 181.881 327.019C181.881 325.907 182.101 324.94 182.541 324.117C182.98 323.294 183.587 322.656 184.359 322.204C185.132 321.745 186.021 321.516 187.026 321.516C188.094 321.516 189.002 321.767 189.75 322.27C190.497 322.772 191.05 323.479 191.408 324.39C191.766 325.301 191.892 326.372 191.785 327.604H189.25V326.661C189.25 325.625 189.084 324.88 188.751 324.428C188.424 323.969 187.887 323.74 187.139 323.74C186.266 323.74 185.622 324.007 185.208 324.541C184.799 325.069 184.595 325.851 184.595 326.887C184.595 327.836 184.799 328.571 185.208 329.092C185.622 329.608 186.228 329.865 187.026 329.865C187.529 329.865 187.959 329.755 188.317 329.535C188.675 329.315 188.949 328.998 189.137 328.584L191.7 329.319C191.317 330.248 190.711 330.971 189.882 331.486C189.059 332.001 188.157 332.259 187.177 332.259ZM183.803 327.604V325.7H190.551V327.604H183.803ZM194.541 331.976V321.799H196.803V324.286L196.558 323.966C196.69 323.614 196.866 323.294 197.086 323.005C197.305 322.716 197.576 322.477 197.896 322.289C198.141 322.138 198.408 322.022 198.697 321.94C198.986 321.852 199.284 321.799 199.592 321.78C199.9 321.755 200.208 321.761 200.516 321.799V324.192C200.233 324.104 199.903 324.076 199.526 324.107C199.156 324.133 198.819 324.217 198.518 324.362C198.216 324.5 197.962 324.685 197.755 324.918C197.547 325.144 197.39 325.414 197.283 325.728C197.177 326.036 197.123 326.385 197.123 326.774V331.976H194.541ZM212.86 332.259C211.767 332.259 210.806 332.039 209.976 331.599C209.147 331.153 208.5 330.528 208.035 329.724C207.57 328.92 207.338 327.974 207.338 326.887V318.425L209.939 318.406V326.869C209.939 327.315 210.014 327.72 210.165 328.084C210.316 328.449 210.523 328.763 210.787 329.027C211.057 329.29 211.368 329.495 211.72 329.639C212.078 329.777 212.458 329.846 212.86 329.846C213.275 329.846 213.658 329.774 214.01 329.63C214.368 329.485 214.679 329.281 214.943 329.017C215.206 328.753 215.411 328.439 215.555 328.075C215.706 327.71 215.781 327.308 215.781 326.869V318.406H218.382V326.887C218.382 327.974 218.15 328.92 217.685 329.724C217.22 330.528 216.573 331.153 215.744 331.599C214.914 332.039 213.953 332.259 212.86 332.259ZM225.618 332.259C224.336 332.259 223.3 331.97 222.508 331.392C221.723 330.808 221.245 329.985 221.076 328.923L223.696 328.527C223.802 329.005 224.038 329.378 224.402 329.648C224.773 329.919 225.241 330.054 225.806 330.054C226.271 330.054 226.629 329.966 226.881 329.79C227.132 329.608 227.258 329.356 227.258 329.036C227.258 328.835 227.207 328.675 227.107 328.555C227.006 328.43 226.78 328.307 226.428 328.188C226.083 328.068 225.543 327.911 224.808 327.717C223.978 327.503 223.315 327.264 222.819 327C222.323 326.737 221.965 326.422 221.745 326.058C221.525 325.687 221.415 325.241 221.415 324.72C221.415 324.067 221.582 323.501 221.914 323.024C222.247 322.54 222.715 322.169 223.319 321.912C223.928 321.648 224.644 321.516 225.467 321.516C226.265 321.516 226.972 321.638 227.587 321.883C228.203 322.128 228.699 322.477 229.076 322.929C229.46 323.382 229.695 323.916 229.783 324.531L227.163 325.003C227.119 324.626 226.956 324.327 226.673 324.107C226.391 323.888 226.007 323.759 225.524 323.721C225.053 323.69 224.672 323.752 224.383 323.91C224.101 324.067 223.959 324.293 223.959 324.588C223.959 324.764 224.019 324.912 224.138 325.031C224.264 325.15 224.519 325.273 224.902 325.398C225.291 325.524 225.882 325.687 226.673 325.888C227.446 326.09 228.065 326.325 228.53 326.595C229.001 326.859 229.343 327.179 229.557 327.556C229.771 327.927 229.877 328.376 229.877 328.904C229.877 329.947 229.5 330.767 228.747 331.364C227.993 331.96 226.95 332.259 225.618 332.259ZM235.403 332.259C234.675 332.259 234.056 332.121 233.547 331.844C233.044 331.561 232.661 331.188 232.397 330.723C232.14 330.252 232.011 329.733 232.011 329.168C232.011 328.697 232.083 328.266 232.228 327.877C232.372 327.487 232.605 327.145 232.925 326.85C233.252 326.548 233.688 326.297 234.235 326.096C234.612 325.958 235.061 325.835 235.583 325.728C236.104 325.621 236.695 325.521 237.354 325.427C238.014 325.326 238.739 325.216 239.531 325.097L238.607 325.606C238.607 325.003 238.463 324.56 238.174 324.277C237.885 323.994 237.401 323.853 236.723 323.853C236.346 323.853 235.953 323.944 235.545 324.126C235.136 324.308 234.851 324.632 234.687 325.097L232.369 324.362C232.627 323.52 233.11 322.835 233.82 322.308C234.53 321.78 235.498 321.516 236.723 321.516C237.621 321.516 238.419 321.654 239.116 321.931C239.814 322.207 240.341 322.684 240.7 323.363C240.901 323.74 241.02 324.117 241.058 324.494C241.095 324.871 241.114 325.292 241.114 325.757V331.976H238.871V329.884L239.192 330.318C238.695 331.002 238.158 331.499 237.58 331.806C237.009 332.108 236.283 332.259 235.403 332.259ZM235.95 330.242C236.421 330.242 236.817 330.16 237.137 329.997C237.464 329.828 237.722 329.636 237.91 329.422C238.105 329.209 238.237 329.03 238.306 328.885C238.438 328.609 238.513 328.288 238.532 327.924C238.557 327.553 238.57 327.245 238.57 327L239.324 327.189C238.564 327.315 237.948 327.421 237.477 327.509C237.005 327.591 236.625 327.666 236.336 327.735C236.047 327.805 235.793 327.88 235.573 327.962C235.322 328.062 235.118 328.172 234.961 328.291C234.81 328.405 234.697 328.53 234.621 328.668C234.552 328.807 234.518 328.961 234.518 329.13C234.518 329.363 234.574 329.564 234.687 329.733C234.807 329.897 234.973 330.022 235.187 330.11C235.4 330.198 235.655 330.242 235.95 330.242ZM248.546 336.782C247.968 336.782 247.419 336.688 246.897 336.499C246.376 336.317 245.908 336.06 245.493 335.727C245.085 335.4 244.752 335.017 244.494 334.577L246.869 333.427C247.032 333.729 247.265 333.958 247.566 334.115C247.874 334.272 248.207 334.351 248.565 334.351C248.948 334.351 249.31 334.285 249.649 334.153C249.988 334.027 250.258 333.836 250.459 333.578C250.667 333.327 250.764 333.013 250.751 332.636V329.677H251.072V321.799H253.315V332.673C253.315 332.925 253.302 333.16 253.277 333.38C253.258 333.606 253.22 333.829 253.164 334.049C253.001 334.671 252.696 335.183 252.25 335.585C251.81 335.987 251.27 336.286 250.629 336.481C249.988 336.682 249.294 336.782 248.546 336.782ZM248.32 332.259C247.384 332.259 246.564 332.023 245.861 331.552C245.157 331.081 244.607 330.44 244.212 329.63C243.822 328.819 243.627 327.905 243.627 326.887C243.627 325.851 243.825 324.93 244.221 324.126C244.623 323.316 245.185 322.678 245.908 322.213C246.63 321.748 247.478 321.516 248.452 321.516C249.42 321.516 250.233 321.752 250.893 322.223C251.552 322.694 252.052 323.335 252.391 324.145C252.73 324.956 252.9 325.87 252.9 326.887C252.9 327.905 252.727 328.819 252.382 329.63C252.042 330.44 251.534 331.081 250.855 331.552C250.177 332.023 249.332 332.259 248.32 332.259ZM248.735 329.978C249.306 329.978 249.762 329.849 250.101 329.592C250.447 329.334 250.695 328.973 250.846 328.508C250.996 328.043 251.072 327.503 251.072 326.887C251.072 326.272 250.996 325.731 250.846 325.267C250.695 324.802 250.453 324.44 250.12 324.183C249.793 323.925 249.363 323.796 248.829 323.796C248.257 323.796 247.786 323.938 247.416 324.221C247.051 324.497 246.781 324.871 246.605 325.342C246.429 325.807 246.341 326.322 246.341 326.887C246.341 327.459 246.426 327.98 246.596 328.452C246.765 328.917 247.026 329.287 247.378 329.564C247.73 329.84 248.182 329.978 248.735 329.978ZM261.313 332.259C260.27 332.259 259.349 332.036 258.551 331.59C257.76 331.137 257.138 330.519 256.686 329.733C256.24 328.942 256.016 328.037 256.016 327.019C256.016 325.907 256.236 324.94 256.676 324.117C257.116 323.294 257.722 322.656 258.495 322.204C259.268 321.745 260.157 321.516 261.162 321.516C262.23 321.516 263.138 321.767 263.885 322.27C264.633 322.772 265.186 323.479 265.544 324.39C265.902 325.301 266.027 326.372 265.921 327.604H263.386V326.661C263.386 325.625 263.219 324.88 262.886 324.428C262.56 323.969 262.022 323.74 261.275 323.74C260.402 323.74 259.758 324.007 259.343 324.541C258.935 325.069 258.73 325.851 258.73 326.887C258.73 327.836 258.935 328.571 259.343 329.092C259.758 329.608 260.364 329.865 261.162 329.865C261.664 329.865 262.095 329.755 262.453 329.535C262.811 329.315 263.084 328.998 263.273 328.584L265.836 329.319C265.453 330.248 264.846 330.971 264.017 331.486C263.194 332.001 262.293 332.259 261.313 332.259ZM257.939 327.604V325.7H264.686V327.604H257.939Z" fill="#1A202C"/>
<path d="M133.894 360.117V348.809H135.292V360.117H133.894ZM144.315 360.117V355.869C144.315 355.466 144.279 355.078 144.205 354.707C144.137 354.335 144.014 354.002 143.836 353.709C143.664 353.411 143.428 353.175 143.13 353.002C142.836 352.83 142.465 352.743 142.014 352.743C141.664 352.743 141.344 352.803 141.056 352.924C140.774 353.039 140.53 353.217 140.326 353.458C140.122 353.699 139.962 354.002 139.847 354.369C139.737 354.73 139.682 355.157 139.682 355.649L138.763 355.366C138.763 354.544 138.91 353.84 139.203 353.254C139.502 352.662 139.918 352.209 140.452 351.895C140.991 351.576 141.624 351.416 142.352 351.416C142.902 351.416 143.37 351.503 143.758 351.675C144.145 351.848 144.467 352.078 144.724 352.366C144.98 352.649 145.182 352.968 145.328 353.324C145.475 353.675 145.577 354.034 145.635 354.4C145.698 354.761 145.729 355.104 145.729 355.429V360.117H144.315ZM138.269 360.117V351.636H139.525V353.906H139.682V360.117H138.269ZM151.895 360.353C151.037 360.353 150.306 360.162 149.704 359.78C149.107 359.392 148.652 358.861 148.338 358.185C148.024 357.51 147.861 356.74 147.851 355.877C147.861 354.992 148.026 354.214 148.346 353.544C148.67 352.869 149.134 352.343 149.736 351.966C150.338 351.589 151.063 351.4 151.911 351.4C152.806 351.4 153.576 351.62 154.22 352.06C154.869 352.5 155.303 353.102 155.523 353.866L154.141 354.282C153.963 353.79 153.673 353.408 153.269 353.136C152.872 352.864 152.413 352.728 151.895 352.728C151.314 352.728 150.835 352.864 150.458 353.136C150.081 353.403 149.801 353.775 149.618 354.251C149.435 354.722 149.34 355.264 149.335 355.877C149.346 356.819 149.563 357.581 149.987 358.162C150.416 358.738 151.052 359.026 151.895 359.026C152.45 359.026 152.911 358.9 153.277 358.649C153.644 358.392 153.921 358.023 154.11 357.541L155.523 357.911C155.23 358.701 154.772 359.306 154.149 359.725C153.526 360.143 152.775 360.353 151.895 360.353ZM157.754 360.117V351.636H159.003V353.686L158.799 353.419C158.898 353.157 159.026 352.916 159.183 352.696C159.346 352.476 159.526 352.296 159.725 352.154C159.945 351.976 160.194 351.84 160.471 351.746C160.749 351.652 161.032 351.597 161.319 351.581C161.607 351.56 161.877 351.578 162.128 351.636V352.947C161.835 352.869 161.513 352.848 161.162 352.885C160.812 352.921 160.487 353.05 160.189 353.269C159.916 353.463 159.704 353.699 159.553 353.976C159.406 354.254 159.304 354.555 159.246 354.879C159.189 355.199 159.16 355.526 159.16 355.861V360.117H157.754ZM167.763 360.353C166.931 360.353 166.203 360.17 165.58 359.803C164.962 359.431 164.481 358.916 164.135 358.256C163.79 357.591 163.617 356.816 163.617 355.932C163.617 355.005 163.787 354.204 164.127 353.529C164.468 352.848 164.941 352.324 165.549 351.958C166.161 351.586 166.879 351.4 167.7 351.4C168.554 351.4 169.279 351.597 169.876 351.989C170.478 352.382 170.928 352.942 171.226 353.67C171.53 354.398 171.661 355.264 171.619 356.269H170.206V355.767C170.19 354.725 169.978 353.947 169.569 353.434C169.161 352.916 168.554 352.657 167.748 352.657C166.884 352.657 166.227 352.934 165.776 353.489C165.326 354.044 165.101 354.84 165.101 355.877C165.101 356.877 165.326 357.651 165.776 358.201C166.227 358.751 166.868 359.026 167.7 359.026C168.261 359.026 168.748 358.897 169.161 358.641C169.575 358.384 169.899 358.015 170.135 357.534L171.478 357.997C171.148 358.746 170.651 359.327 169.986 359.74C169.326 360.149 168.585 360.353 167.763 360.353ZM164.63 356.269V355.146H170.897V356.269H164.63ZM176.253 360.353C175.62 360.353 175.088 360.238 174.659 360.007C174.235 359.772 173.913 359.463 173.693 359.081C173.478 358.698 173.371 358.28 173.371 357.824C173.371 357.379 173.455 356.994 173.622 356.67C173.795 356.34 174.036 356.068 174.345 355.853C174.654 355.633 175.023 355.46 175.452 355.335C175.855 355.225 176.306 355.131 176.803 355.052C177.305 354.968 177.813 354.892 178.326 354.824C178.839 354.756 179.318 354.691 179.763 354.628L179.261 354.919C179.277 354.165 179.125 353.607 178.805 353.246C178.491 352.885 177.947 352.704 177.172 352.704C176.659 352.704 176.209 352.822 175.821 353.057C175.439 353.288 175.169 353.665 175.012 354.188L173.685 353.788C173.889 353.044 174.285 352.461 174.871 352.037C175.457 351.612 176.23 351.4 177.188 351.4C177.957 351.4 178.617 351.539 179.167 351.817C179.722 352.089 180.119 352.502 180.36 353.057C180.481 353.319 180.557 353.604 180.588 353.913C180.619 354.217 180.635 354.536 180.635 354.871V360.117H179.394V358.083L179.685 358.272C179.366 358.958 178.918 359.476 178.342 359.827C177.771 360.177 177.075 360.353 176.253 360.353ZM176.465 359.183C176.968 359.183 177.402 359.094 177.769 358.916C178.141 358.732 178.439 358.494 178.664 358.201C178.889 357.903 179.036 357.578 179.104 357.227C179.182 356.966 179.224 356.675 179.229 356.356C179.24 356.031 179.245 355.782 179.245 355.61L179.732 355.822C179.277 355.884 178.829 355.945 178.389 356.002C177.949 356.06 177.533 356.123 177.141 356.191C176.748 356.254 176.395 356.329 176.08 356.418C175.85 356.492 175.633 356.586 175.429 356.701C175.23 356.816 175.067 356.966 174.942 357.149C174.821 357.327 174.761 357.549 174.761 357.816C174.761 358.047 174.819 358.267 174.934 358.476C175.054 358.685 175.238 358.855 175.484 358.986C175.735 359.117 176.062 359.183 176.465 359.183ZM186.509 360.345C185.499 360.345 184.669 360.125 184.02 359.685C183.376 359.24 182.981 358.62 182.834 357.824L184.263 357.596C184.378 358.057 184.643 358.424 185.056 358.696C185.47 358.963 185.983 359.096 186.596 359.096C187.177 359.096 187.632 358.976 187.962 358.735C188.292 358.494 188.457 358.167 188.457 357.753C188.457 357.513 188.402 357.319 188.292 357.172C188.182 357.021 187.954 356.879 187.609 356.748C187.268 356.617 186.753 356.46 186.062 356.277C185.313 356.078 184.724 355.871 184.295 355.657C183.865 355.442 183.559 355.193 183.376 354.911C183.193 354.628 183.101 354.285 183.101 353.882C183.101 353.385 183.237 352.95 183.509 352.578C183.782 352.201 184.161 351.911 184.648 351.707C185.14 351.503 185.711 351.4 186.36 351.4C187.004 351.4 187.58 351.503 188.088 351.707C188.595 351.911 189.004 352.201 189.313 352.578C189.627 352.95 189.813 353.385 189.87 353.882L188.441 354.141C188.373 353.686 188.153 353.327 187.781 353.065C187.415 352.803 186.941 352.665 186.36 352.649C185.81 352.628 185.363 352.725 185.017 352.94C184.677 353.154 184.507 353.445 184.507 353.811C184.507 354.015 184.569 354.191 184.695 354.337C184.826 354.484 185.064 354.623 185.41 354.754C185.76 354.885 186.268 355.034 186.933 355.201C187.682 355.39 188.271 355.597 188.7 355.822C189.135 356.042 189.444 356.303 189.627 356.607C189.81 356.905 189.902 357.274 189.902 357.714C189.902 358.531 189.601 359.175 188.999 359.646C188.396 360.112 187.567 360.345 186.509 360.345ZM195.937 360.353C195.105 360.353 194.377 360.17 193.754 359.803C193.136 359.431 192.654 358.916 192.309 358.256C191.963 357.591 191.791 356.816 191.791 355.932C191.791 355.005 191.961 354.204 192.301 353.529C192.641 352.848 193.115 352.324 193.722 351.958C194.335 351.586 195.052 351.4 195.874 351.4C196.727 351.4 197.453 351.597 198.049 351.989C198.651 352.382 199.102 352.942 199.4 353.67C199.704 354.398 199.835 355.264 199.793 356.269H198.379V355.767C198.364 354.725 198.151 353.947 197.743 353.434C197.335 352.916 196.727 352.657 195.921 352.657C195.057 352.657 194.4 352.934 193.95 353.489C193.5 354.044 193.275 354.84 193.275 355.877C193.275 356.877 193.5 357.651 193.95 358.201C194.4 358.751 195.042 359.026 195.874 359.026C196.434 359.026 196.921 358.897 197.335 358.641C197.748 358.384 198.073 358.015 198.309 357.534L199.651 357.997C199.322 358.746 198.824 359.327 198.159 359.74C197.5 360.149 196.759 360.353 195.937 360.353ZM192.804 356.269V355.146H199.07V356.269H192.804ZM205.499 360.353C204.708 360.353 204.031 360.156 203.465 359.764C202.9 359.366 202.463 358.829 202.154 358.154C201.85 357.479 201.698 356.717 201.698 355.869C201.698 355.021 201.85 354.259 202.154 353.584C202.463 352.908 202.9 352.377 203.465 351.989C204.031 351.597 204.706 351.4 205.491 351.4C206.292 351.4 206.965 351.594 207.509 351.982C208.054 352.369 208.465 352.9 208.742 353.576C209.025 354.251 209.166 355.015 209.166 355.869C209.166 356.712 209.025 357.473 208.742 358.154C208.465 358.829 208.054 359.366 207.509 359.764C206.965 360.156 206.295 360.353 205.499 360.353ZM205.672 359.073C206.242 359.073 206.711 358.937 207.077 358.664C207.444 358.387 207.714 358.007 207.886 357.526C208.064 357.039 208.153 356.487 208.153 355.869C208.153 355.241 208.064 354.688 207.886 354.212C207.714 353.73 207.447 353.356 207.085 353.089C206.724 352.817 206.266 352.68 205.711 352.68C205.135 352.68 204.659 352.822 204.282 353.105C203.91 353.387 203.633 353.769 203.449 354.251C203.271 354.733 203.182 355.272 203.182 355.869C203.182 356.471 203.274 357.015 203.457 357.502C203.64 357.984 203.915 358.366 204.282 358.649C204.654 358.931 205.117 359.073 205.672 359.073ZM208.153 360.117V353.874H207.996V348.809H209.402V360.117H208.153ZM216.003 360.117V348.809H220.408C221.084 348.809 221.66 348.948 222.136 349.225C222.618 349.503 222.984 349.869 223.235 350.325C223.492 350.775 223.62 351.262 223.62 351.785C223.62 352.398 223.463 352.934 223.149 353.395C222.835 353.856 222.411 354.173 221.877 354.345L221.861 353.96C222.589 354.154 223.154 354.51 223.557 355.028C223.96 355.547 224.162 356.165 224.162 356.882C224.162 357.541 224.026 358.112 223.754 358.594C223.487 359.075 223.099 359.45 222.591 359.717C222.089 359.984 221.492 360.117 220.801 360.117H216.003ZM217.416 358.782H220.534C220.953 358.782 221.327 358.706 221.657 358.554C221.987 358.397 222.246 358.178 222.434 357.895C222.628 357.612 222.725 357.272 222.725 356.874C222.725 356.492 222.639 356.149 222.466 355.845C222.298 355.542 222.06 355.301 221.751 355.123C221.448 354.939 221.094 354.848 220.691 354.848H217.416V358.782ZM217.416 353.529H220.393C220.728 353.529 221.029 353.458 221.296 353.317C221.568 353.17 221.783 352.966 221.94 352.704C222.102 352.442 222.183 352.136 222.183 351.785C222.183 351.298 222.018 350.9 221.688 350.592C221.359 350.283 220.927 350.128 220.393 350.128H217.416V353.529ZM227.533 363.887L229.174 359.426L229.198 360.745L225.491 351.636H226.96L229.865 358.963H229.363L232.088 351.636H233.509L228.892 363.887H227.533ZM242.552 360.353C241.971 360.353 241.429 360.232 240.927 359.992C240.429 359.751 240.003 359.421 239.647 359.002C239.296 358.578 239.045 358.091 238.893 357.541L240.236 357.18C240.33 357.552 240.498 357.874 240.738 358.146C240.979 358.413 241.259 358.623 241.579 358.774C241.903 358.921 242.241 358.994 242.592 358.994C243.052 358.994 243.466 358.884 243.832 358.664C244.204 358.439 244.497 358.143 244.712 357.777C244.927 357.405 245.034 357 245.034 356.56C245.034 356.104 244.921 355.693 244.696 355.327C244.476 354.955 244.181 354.662 243.809 354.447C243.437 354.233 243.031 354.125 242.592 354.125C242.094 354.125 241.668 354.23 241.312 354.44C240.961 354.644 240.683 354.895 240.479 355.193L239.238 354.722L239.584 348.809H245.654V350.136H240.259L240.88 349.555L240.589 354.29L240.283 353.89C240.597 353.555 240.971 353.296 241.406 353.112C241.846 352.929 242.293 352.838 242.749 352.838C243.45 352.838 244.078 353.002 244.633 353.332C245.188 353.657 245.628 354.102 245.953 354.667C246.277 355.227 246.44 355.858 246.44 356.56C246.44 357.256 246.262 357.892 245.906 358.468C245.55 359.039 245.076 359.497 244.484 359.842C243.898 360.183 243.254 360.353 242.552 360.353ZM250.202 360.117L249.26 359.175L259.642 348.809L260.584 349.751L250.202 360.117ZM258.228 360.353C257.71 360.353 257.236 360.227 256.807 359.976C256.383 359.719 256.042 359.379 255.786 358.955C255.529 358.526 255.401 358.049 255.401 357.526C255.401 357.013 255.532 356.541 255.794 356.112C256.055 355.683 256.401 355.34 256.83 355.083C257.26 354.827 257.725 354.699 258.228 354.699C258.746 354.699 259.22 354.827 259.649 355.083C260.079 355.335 260.419 355.675 260.67 356.104C260.927 356.528 261.055 357.002 261.055 357.526C261.055 358.049 260.927 358.526 260.67 358.955C260.419 359.379 260.079 359.719 259.649 359.976C259.22 360.227 258.746 360.353 258.228 360.353ZM258.228 359.12C258.516 359.12 258.78 359.047 259.021 358.9C259.267 358.753 259.461 358.56 259.602 358.319C259.749 358.078 259.822 357.814 259.822 357.526C259.822 357.238 259.749 356.973 259.602 356.733C259.461 356.487 259.267 356.293 259.021 356.151C258.78 356.005 258.516 355.932 258.228 355.932C257.94 355.932 257.676 356.005 257.435 356.151C257.194 356.293 257 356.487 256.854 356.733C256.707 356.973 256.634 357.238 256.634 357.526C256.634 357.814 256.707 358.078 256.854 358.319C257 358.56 257.194 358.753 257.435 358.9C257.676 359.047 257.94 359.12 258.228 359.12ZM251.616 354.227C251.098 354.227 250.624 354.102 250.195 353.851C249.765 353.594 249.422 353.254 249.166 352.83C248.914 352.4 248.789 351.924 248.789 351.4C248.789 350.887 248.92 350.416 249.181 349.987C249.443 349.558 249.789 349.215 250.218 348.958C250.647 348.702 251.113 348.573 251.616 348.573C252.134 348.573 252.605 348.702 253.029 348.958C253.459 349.209 253.802 349.55 254.058 349.979C254.315 350.403 254.443 350.877 254.443 351.4C254.443 351.924 254.315 352.4 254.058 352.83C253.802 353.254 253.459 353.594 253.029 353.851C252.605 354.102 252.134 354.227 251.616 354.227ZM251.616 352.995C251.904 352.995 252.168 352.921 252.409 352.775C252.655 352.628 252.849 352.434 252.99 352.194C253.137 351.953 253.21 351.688 253.21 351.4C253.21 351.112 253.137 350.848 252.99 350.607C252.849 350.361 252.655 350.168 252.409 350.026C252.168 349.88 251.904 349.806 251.616 349.806C251.328 349.806 251.064 349.88 250.823 350.026C250.582 350.168 250.388 350.361 250.242 350.607C250.095 350.848 250.022 351.112 250.022 351.4C250.022 351.688 250.095 351.953 250.242 352.194C250.388 352.434 250.582 352.628 250.823 352.775C251.064 352.921 251.328 352.995 251.616 352.995Z" fill="#A0AEC0"/>
<path d="M402.722 349.246V346.607H405.712V349.246H402.722ZM402.722 331.677V329.039H405.712V331.677H402.722ZM404.239 347.377C403.103 347.377 402.088 347.168 401.193 346.75C400.299 346.325 399.57 345.728 399.006 344.958C398.441 344.181 398.082 343.265 397.928 342.209L400.897 341.748C401.095 342.613 401.509 343.302 402.139 343.815C402.777 344.328 403.535 344.584 404.415 344.584C405.243 344.584 405.928 344.39 406.471 344.002C407.02 343.613 407.295 343.133 407.295 342.561C407.295 342.173 407.174 341.854 406.932 341.605C406.698 341.348 406.328 341.139 405.822 340.978L401.908 339.769C399.651 339.072 398.522 337.695 398.522 335.635C398.522 334.667 398.749 333.828 399.204 333.117C399.665 332.406 400.314 331.86 401.149 331.479C401.992 331.091 402.986 330.9 404.129 330.908C405.177 330.922 406.108 331.113 406.921 331.479C407.735 331.838 408.413 332.362 408.955 333.051C409.505 333.733 409.904 334.565 410.154 335.547L407.075 336.097C406.973 335.628 406.782 335.217 406.504 334.865C406.225 334.506 405.877 334.228 405.459 334.03C405.049 333.825 404.591 333.715 404.085 333.7C403.601 333.685 403.161 333.755 402.766 333.909C402.377 334.063 402.066 334.279 401.831 334.558C401.604 334.829 401.49 335.137 401.49 335.481C401.49 335.862 401.652 336.192 401.974 336.471C402.297 336.742 402.81 336.976 403.513 337.174L406.306 337.966C407.706 338.369 408.713 338.915 409.329 339.604C409.952 340.293 410.264 341.205 410.264 342.341C410.264 343.338 410.011 344.214 409.505 344.969C408.999 345.724 408.292 346.314 407.383 346.739C406.482 347.164 405.434 347.377 404.239 347.377ZM419.431 347.047V344.584H412.548V341.792L417.54 331.215H420.97L415.979 341.792H419.431V337.834H422.465V341.792H423.872V344.584H422.465V347.047H419.431ZM431.536 347.377C430.737 347.377 429.986 347.212 429.282 346.882C428.586 346.552 427.985 346.094 427.479 345.508C426.973 344.921 426.61 344.24 426.39 343.463L429.271 342.693C429.366 343.067 429.535 343.389 429.777 343.661C430.026 343.932 430.312 344.144 430.634 344.298C430.964 344.445 431.301 344.518 431.646 344.518C432.1 344.518 432.514 344.408 432.888 344.188C433.269 343.969 433.57 343.672 433.79 343.298C434.017 342.924 434.13 342.51 434.13 342.056C434.13 341.601 434.017 341.187 433.79 340.813C433.57 340.439 433.269 340.143 432.888 339.923C432.514 339.703 432.1 339.593 431.646 339.593C431.089 339.593 430.634 339.688 430.282 339.879C429.931 340.062 429.667 340.238 429.491 340.406L426.962 339.637L427.446 331.215H436.087V334.008H429.095L430.15 333.018L429.821 338.449L429.315 337.834C429.711 337.511 430.161 337.277 430.667 337.13C431.173 336.984 431.646 336.91 432.085 336.91C433.082 336.91 433.958 337.134 434.713 337.581C435.475 338.021 436.069 338.629 436.494 339.406C436.926 340.176 437.143 341.059 437.143 342.056C437.143 343.052 436.883 343.954 436.362 344.76C435.842 345.559 435.156 346.197 434.306 346.673C433.456 347.142 432.533 347.377 431.536 347.377ZM440.576 347.047V344.056H443.567V347.047H440.576ZM448.241 347.047L453.562 334.03H446.79V331.215H456.773V334.03L451.474 347.047H448.241ZM465.023 347.377C463.953 347.377 463 347.16 462.165 346.728C461.337 346.288 460.684 345.687 460.208 344.925C459.739 344.155 459.504 343.28 459.504 342.297C459.504 341.462 459.691 340.674 460.065 339.934C460.446 339.193 460.992 338.589 461.703 338.12L461.637 339.043C461.102 338.523 460.681 337.973 460.373 337.394C460.072 336.815 459.922 336.163 459.922 335.437C459.922 334.521 460.138 333.722 460.571 333.04C461.011 332.359 461.612 331.831 462.374 331.457C463.143 331.076 464.027 330.886 465.023 330.886C466.02 330.886 466.9 331.076 467.662 331.457C468.432 331.831 469.033 332.359 469.465 333.04C469.905 333.722 470.125 334.521 470.125 335.437C470.125 336.163 469.982 336.815 469.696 337.394C469.41 337.966 468.974 338.523 468.388 339.065V338.142C469.084 338.581 469.619 339.175 469.993 339.923C470.374 340.67 470.564 341.462 470.564 342.297C470.564 343.28 470.326 344.155 469.85 344.925C469.373 345.687 468.717 346.288 467.882 346.728C467.046 347.16 466.093 347.377 465.023 347.377ZM465.023 344.562C465.727 344.562 466.299 344.372 466.738 343.991C467.178 343.609 467.398 343.045 467.398 342.297C467.398 341.557 467.178 340.993 466.738 340.604C466.299 340.209 465.727 340.011 465.023 340.011C464.32 340.011 463.752 340.209 463.319 340.604C462.887 340.993 462.671 341.557 462.671 342.297C462.671 343.045 462.887 343.609 463.319 343.991C463.752 344.372 464.32 344.562 465.023 344.562ZM465.023 337.174C465.595 337.174 466.061 337.035 466.42 336.756C466.779 336.471 466.958 336.031 466.958 335.437C466.958 334.843 466.779 334.404 466.42 334.118C466.061 333.825 465.595 333.678 465.023 333.678C464.452 333.678 463.986 333.825 463.627 334.118C463.268 334.404 463.088 334.843 463.088 335.437C463.088 336.031 463.268 336.471 463.627 336.756C463.986 337.035 464.452 337.174 465.023 337.174Z" fill="#1A202C"/>
<rect opacity="0.2" x="63.5322" y="386.535" width="408.353" height="9.42353" rx="4.71176" fill="#FBAD18"/>
<rect x="63.5322" y="386.535" width="245.012" height="9.42353" rx="4.71176" fill="#FBAD18"/>
</svg>
